HIERARCHY
ROOT Hips
{
  OFFSET 5.84602e-005 68.8428 3.50346
  CHANNELS 6 Xposition Yposition Zposition Zrotation Xrotation Yrotation
  JOINT Spine
  {
    OFFSET 0 8.597 -4.6522
    CHANNELS 3 Zrotation Xrotation Yrotation
    JOINT Spine1
    {
      OFFSET 0 7.8454 0.4098
      CHANNELS 3 Zrotation Xrotation Yrotation
      JOINT Spine2
      {
        OFFSET 0 9.7078 -2.1609
        CHANNELS 3 Zrotation Xrotation Yrotation
        JOINT Neck
        {
          OFFSET 0 21.8761 -0.4549
          CHANNELS 3 Zrotation Xrotation Yrotation
          JOINT Head
          {
            OFFSET 0 12.3537 3.3602
            CHANNELS 3 Zrotation Xrotation Yrotation
            End Site
            {
              OFFSET 0.0001 18.9506 0.5657
            }
          }
        }
        JOINT LeftShoulder
        {
          OFFSET 2.2086 21.1115 7.2329
          CHANNELS 3 Zrotation Xrotation Yrotation
          JOINT LeftArm
          {
            OFFSET 13.1193 3.0282 -4.8998
            CHANNELS 3 Zrotation Xrotation Yrotation
            JOINT LeftForeArm
            {
              OFFSET 27.4081 -0.0973053 -0.2375
              CHANNELS 3 Zrotation Xrotation Yrotation
              JOINT LeftHand
              {
                OFFSET 22.8641 0.0662994 -0.1369
                CHANNELS 3 Zrotation Xrotation Yrotation
                JOINT LeftHandIndex1
                {
                  OFFSET 8.8614 0.775009 2.4612
                  CHANNELS 3 Zrotation Xrotation Yrotation
                  JOINT LeftHandIndex2
                  {
                    OFFSET 3.3146 -0.808304 0.5841
                    CHANNELS 3 Zrotation Xrotation Yrotation
                    JOINT LeftHandIndex3
                    {
                      OFFSET 2.2628 -0.552002 0.3989
                      CHANNELS 3 Zrotation Xrotation Yrotation
                      End Site
                      {
                        OFFSET 1.6102 -0.4807 0.2612
                      }
                    }
                  }
                }
                JOINT LeftHandMiddle1
                {
                  OFFSET 8.9937 0.895004 0.2143
                  CHANNELS 3 Zrotation Xrotation Yrotation
                  JOINT LeftHandMiddle2
                  {
                    OFFSET 4.0984 0.0113983 -0.0242
                    CHANNELS 3 Zrotation Xrotation Yrotation
                    JOINT LeftHandMiddle3
                    {
                      OFFSET 2.2716 0.00689697 -0.0138001
                      CHANNELS 3 Zrotation Xrotation Yrotation
                      End Site
                      {
                        OFFSET 2.0404 -0.1441 0.0027
                      }
                    }
                  }
                }
                JOINT LeftHandRing1
                {
                  OFFSET 8.5234 0.597198 -2.0164
                  CHANNELS 3 Zrotation Xrotation Yrotation
                  JOINT LeftHandRing2
                  {
                    OFFSET 3.7188 -0.188293 -0.2328
                    CHANNELS 3 Zrotation Xrotation Yrotation
                    JOINT LeftHandRing3
                    {
                      OFFSET 2.1191 -0.106598 -0.1332
                      CHANNELS 3 Zrotation Xrotation Yrotation
                      End Site
                      {
                        OFFSET 1.8737 -0.2304 -0.0886
                      }
                    }
                  }
                }
                JOINT LeftHandPinky1
                {
                  OFFSET 7.9094 -0.601089 -3.4825
                  CHANNELS 3 Zrotation Xrotation Yrotation
                  JOINT LeftHandPinky2
                  {
                    OFFSET 2.2874 -0.477005 -0.6314
                    CHANNELS 3 Zrotation Xrotation Yrotation
                    JOINT LeftHandPinky3
                    {
                      OFFSET 1.6774 -0.349396 -0.4633
                      CHANNELS 3 Zrotation Xrotation Yrotation
                      End Site
                      {
                        OFFSET 1.4888 -0.4091 -0.3416
                      }
                    }
                  }
                }
                JOINT LeftHandThumb1
                {
                  OFFSET 1.833 -1.3875 1.3896
                  CHANNELS 3 Zrotation Xrotation Yrotation
                  JOINT LeftHandThumb2
                  {
                    OFFSET 3.4129 -1.121 2.5732
                    CHANNELS 3 Zrotation Xrotation Yrotation
                    JOINT LeftHandThumb3
                    {
                      OFFSET 2.2474 -0.804199 1.6192
                      CHANNELS 3 Zrotation Xrotation Yrotation
                      End Site
                      {
                        OFFSET 1.6527 -0.5689 1.1317
                      }
                    }
                  }
                }
              }
            }
          }
        }
        JOINT RightShoulder
        {
          OFFSET -2.2086 21.1115 7.2329
          CHANNELS 3 Zrotation Xrotation Yrotation
          JOINT RightArm
          {
            OFFSET -13.1216 3.0287 -4.9007
            CHANNELS 3 Zrotation Xrotation Yrotation
            JOINT RightForeArm
            {
              OFFSET -27.4081 -0.0973053 -0.2375
              CHANNELS 3 Zrotation Xrotation Yrotation
              JOINT RightHand
              {
                OFFSET -22.8641 0.0664063 -0.1369
                CHANNELS 3 Zrotation Xrotation Yrotation
                JOINT RightHandIndex1
                {
                  OFFSET -8.8614 0.774994 2.4612
                  CHANNELS 3 Zrotation Xrotation Yrotation
                  JOINT RightHandIndex2
                  {
                    OFFSET -3.3146 -0.808304 0.5841
                    CHANNELS 3 Zrotation Xrotation Yrotation
                    JOINT RightHandIndex3
                    {
                      OFFSET -2.2628 -0.552002 0.3989
                      CHANNELS 3 Zrotation Xrotation Yrotation
                      End Site
                      {
                        OFFSET -1.6102 -0.4807 0.2612
                      }
                    }
                  }
                }
                JOINT RightHandMiddle1
                {
                  OFFSET -8.9937 0.894989 0.2143
                  CHANNELS 3 Zrotation Xrotation Yrotation
                  JOINT RightHandMiddle2
                  {
                    OFFSET -4.0984 0.0113983 -0.0242
                    CHANNELS 3 Zrotation Xrotation Yrotation
                    JOINT RightHandMiddle3
                    {
                      OFFSET -2.2716 0.00691223 -0.0138001
                      CHANNELS 3 Zrotation Xrotation Yrotation
                      End Site
                      {
                        OFFSET -2.0404 -0.1441 0.0027
                      }
                    }
                  }
                }
                JOINT RightHandRing1
                {
                  OFFSET -8.5234 0.597198 -2.0164
                  CHANNELS 3 Zrotation Xrotation Yrotation
                  JOINT RightHandRing2
                  {
                    OFFSET -3.7188 -0.188309 -0.2328
                    CHANNELS 3 Zrotation Xrotation Yrotation
                    JOINT RightHandRing3
                    {
                      OFFSET -2.1191 -0.106598 -0.1332
                      CHANNELS 3 Zrotation Xrotation Yrotation
                      End Site
                      {
                        OFFSET -1.8737 -0.2304 -0.0886
                      }
                    }
                  }
                }
                JOINT RightHandPinky1
                {
                  OFFSET -7.9094 -0.601105 -3.4825
                  CHANNELS 3 Zrotation Xrotation Yrotation
                  JOINT RightHandPinky2
                  {
                    OFFSET -2.2874 -0.477005 -0.6314
                    CHANNELS 3 Zrotation Xrotation Yrotation
                    JOINT RightHandPinky3
                    {
                      OFFSET -1.6774 -0.349396 -0.4633
                      CHANNELS 3 Zrotation Xrotation Yrotation
                      End Site
                      {
                        OFFSET -1.4888 -0.4091 -0.3416
                      }
                    }
                  }
                }
                JOINT RightHandThumb1
                {
                  OFFSET -1.833 -1.38751 1.3896
                  CHANNELS 3 Zrotation Xrotation Yrotation
                  JOINT RightHandThumb2
                  {
                    OFFSET -3.41299 -1.12099 2.5732
                    CHANNELS 3 Zrotation Xrotation Yrotation
                    JOINT RightHandThumb3
                    {
                      OFFSET -2.24741 -0.804108 1.6192
                      CHANNELS 3 Zrotation Xrotation Yrotation
                      End Site
                      {
                        OFFSET -1.6527 -0.5689 1.1317
                      }
                    }
                  }
                }
              }
            }
          }
        }
      }
    }
  }
  JOINT RightUpLeg
  {
    OFFSET -9.1966 3.8861 -0.7581
    CHANNELS 3 Zrotation Xrotation Yrotation
    JOINT RightLeg
    {
      OFFSET -0.7359 -41.0265 0
      CHANNELS 3 Zrotation Xrotation Yrotation
      JOINT RightFoot
      {
        OFFSET 0 -40.2855 0
        CHANNELS 3 Zrotation Xrotation Yrotation
        JOINT RightToeBase
        {
          OFFSET 0 -5.6122 11.7359
          CHANNELS 3 Zrotation Xrotation Yrotation
          End Site
          {
            OFFSET 0 0 7.8731
          }
        }
      }
    }
  }
  JOINT LeftUpLeg
  {
    OFFSET 9.1965 3.8864 -0.7581
    CHANNELS 3 Zrotation Xrotation Yrotation
    JOINT LeftLeg
    {
      OFFSET 0.7359 -41.0268 0
      CHANNELS 3 Zrotation Xrotation Yrotation
      JOINT LeftFoot
      {
        OFFSET 0 -40.2855 0
        CHANNELS 3 Zrotation Xrotation Yrotation
        JOINT LeftToeBase
        {
          OFFSET 0 -5.6122 11.7359
          CHANNELS 3 Zrotation Xrotation Yrotation
          End Site
          {
            OFFSET 0 0 7.8731
          }
        }
      }
    }
  }
}
MOTION
Frames:	4
Frame Time:	0.0333333
5.84602e-005 68.8428 3.50346 0 0 -0 0 0 -0 0 0 -0 0 0 -0 0 0 -0 0 0 -0 0 0 -0 0 0 -0 0 0 -0 0 0 -0 0 0 -0 0 0 -0 0 0 -0 0 0 -0 -0.0146107 -8.87603e-005 -2.63497e-007 2.99804e-018 -2.42657e-020 -1.42182e-022 0 0 -0 -0.0187562 -0.001176 5.858e-005 5.06224e-018 3.88251e-019 1.21329e-020 0 0 -0 -0.012269 -0.00324817 0.000675346 -1.74678e-018 3.88251e-019 -0 0 0 -0 0 0 -0 0 0 -0 0 0 -0 0 0 -0 0 0 -0 0 0 -0 0 0 -0 0 0 -0 0 0 -0 0 0 -0 0.0149955 -9.10982e-005 2.64101e-007 -9.69331e-018 1.21329e-020 -4.7394e-023 0 0 -0 0.0189956 -0.00119102 -5.96516e-005 -5.41541e-019 0 2.42657e-020 0 0 -0 0.0122698 -0.00324857 -0.000673756 -2.00796e-019 0 -1.94126e-019 0 0 -0 0 0 -0 0 0 -0 3.39842 1.33031 -0.0637918 -5.65207e-008 0.834868 -0.000436188 -3.39935 -2.16518 -0.0642563 -8.89002e-024 -1.18485e-023 -1.48106e-024 -3.39844 1.35642 0.0640283 -3.18788e-007 0.782166 -0.000588827 3.39931 -2.13858 0.0634662 1.1399e-023 0 -0 
3.24899 31.7907 28.9526 -1.91294e-015 4.81516e-015 133.333 0.141242 6.52198 -0.0821827 0.294874 13.0438 -0.182417 0.294878 13.0438 -0.18243 -3.90476e-005 7.24257 4.46878e-005 4.44916e-007 -27.3681 -1.71698e-006 7.34924 -42.8928 29.4452 -51.6156 10.3662 -25.503 39.89 -0.360343 -90.6304 -5.45791 -20.2159 3.69084 -3.57653e-006 4.77728e-007 -4.12772e-006 -2.053e-006 -1.90319e-007 -2.84063e-006 -1.54685e-006 5.63051e-007 2.53073e-007 -3.57653e-006 4.77728e-007 -4.12772e-006 -0.0145278 -9.05702e-005 -1.31316e-007 -1.52174e-006 6.68221e-007 -1.287e-006 -3.57653e-006 4.77728e-007 -4.12772e-006 -0.0188046 -0.00117728 5.93832e-005 -1.54691e-006 5.63006e-007 2.53181e-007 -3.57653e-006 4.77728e-007 -4.12772e-006 -0.0122961 -0.00325728 0.000680008 -1.54688e-006 5.63022e-007 2.53179e-007 -3.57653e-006 4.77728e-007 -4.12772e-006 -2.053e-006 -1.90319e-007 -2.84063e-006 -1.54685e-006 5.63051e-007 2.53073e-007 3.55399 -29.9371 -20.8735 50.6139 6.78472 18.8566 1.87001 -5.05024 81.2837 9.08058 -7.32479 -20.6572 3.92699e-007 2.2361e-007 7.19474e-007 3.92699e-007 2.2361e-007 7.19474e-007 3.92699e-007 2.2361e-007 7.19474e-007 3.92699e-007 2.2361e-007 7.19474e-007 0.0149574 -9.40471e-005 3.90501e-006 3.92688e-007 2.23704e-007 7.19444e-007 3.92699e-007 2.2361e-007 7.19474e-007 0.0190284 -0.00119025 -6.16392e-005 3.92692e-007 2.23731e-007 7.19432e-007 3.92699e-007 2.2361e-007 7.19474e-007 0.0122718 -0.00325114 -0.000677099 3.92709e-007 2.23692e-007 7.19439e-007 3.92699e-007 2.2361e-007 7.19474e-007 3.92699e-007 2.2361e-007 7.19474e-007 3.92699e-007 2.2361e-007 7.19474e-007 -1.05371 0.247421 -2.43472 -13.023 74.3448 11.4108 -8.8063 38.7671 -1.19559 2.34779e-006 -1.25844e-006 1.24569e-006 2.60545 -1.21192 2.48501 11.3991 73.6902 -10.5126 9.67405 38.7428 0.550984 -6.36111e-015 9.14409e-015 7.95139e-016 
-0.420586 14.9741 41.9662 -8.63487e-015 6.82757e-015 -166.667 0.218495 9.32916 -0.109772 0.464843 18.658 -0.261481 0.464844 18.658 -0.261485 -5.2943e-005 11.3135 2.4065e-005 2.39227e-006 -39.8812 1.47744e-006 30.7336 -52.8374 56.5157 -71.9284 13.1834 -37.4093 49.8559 -26.7911 -122.626 -7.28487 -28.9275 5.37627 9.77561e-007 -1.00366e-006 -2.70562e-006 6.36111e-015 -3.18055e-015 -3.18055e-015 -1.72159e-006 -7.39866e-007 -7.85142e-007 9.77561e-007 -1.00366e-006 -2.70562e-006 -0.0146151 -9.11104e-005 1.49819e-006 6.36111e-015 3.18055e-015 -6.36111e-015 9.77561e-007 -1.00366e-006 -2.70562e-006 -0.0186982 -0.00117304 5.48776e-005 1.76556e-031 -3.18055e-015 3.18055e-015 9.77561e-007 -1.00366e-006 -2.70562e-006 -0.0123814 -0.00327528 0.000680819 3.18055e-015 -6.36111e-015 -4.77083e-015 9.77561e-007 -1.00366e-006 -2.70562e-006 6.36111e-015 -3.18055e-015 -3.18055e-015 -1.72159e-006 -7.39866e-007 -7.85142e-007 -3.31793 -39.895 -34.7912 71.9338 9.16447 27.4762 0.250112 17.6224 109.302 11.6864 -9.65903 -30.2221 3.18055e-015 -4.17448e-015 7.95139e-016 3.18055e-015 -7.35503e-015 7.95139e-016 3.18055e-015 -3.37934e-015 1.19271e-015 3.18055e-015 -4.17448e-015 7.95139e-016 0.0149933 -9.51927e-005 -3.17404e-006 -6.36111e-015 -2.5842e-015 -0 3.18055e-015 -4.17448e-015 7.95139e-016 0.0189691 -0.00118395 -5.35675e-005 2.23454e-031 -1.07344e-014 1.19271e-015 3.18055e-015 -4.17448e-015 7.95139e-016 0.0122802 -0.00325067 -0.000675284 3.18055e-015 -2.38542e-015 2.78299e-015 3.18055e-015 -4.17448e-015 7.95139e-016 3.18055e-015 -7.35503e-015 7.95139e-016 3.18055e-015 -3.37934e-015 1.19271e-015 -2.91572 -0.139975 -4.36334 -162.421 72.5885 158.125 -9.60732 58.6845 -3.20513 3.08054e-007 7.74779e-008 -4.00053e-008 5.0878 -2.19683 4.34774 160.919 73.5199 -157.698 11.5083 58.6549 1.77305 -4.52202e-007 1.71421e-006 -2.86634e-007 
0.495405 18.631 38.8586 -7.01671e-015 7.01671e-015 180 0.200789 8.42135 -0.101137 0.423791 16.8423 -0.23639 0.423791 16.8423 -0.23639 1.19012e-005 12.2117 -5.7967e-006 -3.01741e-007 -37.5391 -2.24975e-007 22.4363 -51.1695 47.2787 -67.5121 12.3821 -34.5281 49.3676 -19.7195 -115.18 -7.62963 -26.2795 4.1524 -1.76556e-031 3.18055e-015 3.18055e-015 1.27222e-014 0 -0 -3.18055e-015 0 9.54166e-015 -1.76556e-031 3.18055e-015 3.18055e-015 -0.0145708 -8.74176e-005 2.62949e-006 -0 0 9.54166e-015 -1.76556e-031 3.18055e-015 3.18055e-015 -0.0188244 -0.00118139 5.74138e-005 2.08885e-006 3.25715e-007 2.59034e-007 -1.76556e-031 3.18055e-015 3.18055e-015 -0.0122981 -0.00325359 0.000678399 3.18055e-015 -9.54166e-015 -1.27222e-014 -1.76556e-031 3.18055e-015 3.18055e-015 1.27222e-014 0 -0 -3.18055e-015 0 9.54166e-015 -0.679692 -37.3527 -30.6812 67.2019 8.5225 25.4311 1.64143 11.6029 103.743 11.6243 -8.80226 -28.1682 4.24838e-031 -7.65321e-015 3.18055e-015 1.59028e-015 -4.96962e-015 3.97569e-015 1.59028e-015 -1.88845e-015 3.18055e-015 4.24838e-031 -7.65321e-015 3.18055e-015 0.0149601 -8.85715e-005 3.48016e-007 -1.87591e-031 3.37934e-015 3.18055e-015 4.24838e-031 -7.65321e-015 3.18055e-015 0.0189602 -0.00118882 -5.4975e-005 1.59028e-015 7.05686e-015 -3.97569e-015 4.24838e-031 -7.65321e-015 3.18055e-015 0.0122596 -0.00324296 -0.00067958 1.59028e-015 -1.19271e-015 7.95139e-016 4.24838e-031 -7.65321e-015 3.18055e-015 1.59028e-015 -4.96962e-015 3.97569e-015 1.59028e-015 -1.88845e-015 3.18055e-015 -2.51751 -0.452352 -3.87812 -153.772 78.78 150.216 -9.89458 54.3228 -2.3111 3.7438e-007 -1.32407e-006 -6.7991e-008 4.35933 -2.19475 3.87781 151.377 79.6289 -148.746 11.4913 54.3108 1.12401 6.15913e-007 -8.23428e-008 -1.54113e-007 
